<?xml version="1.0" encoding="utf-8"?>
<!-- Generator: Adobe Illustrator 19.2.1, SVG Export Plug-In . SVG Version: 6.00 Build 0)  -->
<svg version="1.1" id="Layer_1" xmlns="http://www.w3.org/2000/svg" xmlns:xlink="http://www.w3.org/1999/xlink" x="0px" y="0px"
	 viewBox="0 0 792 792" style="enable-background:new 0 0 792 792;" xml:space="preserve">
<style type="text/css">
	.st0{fill:#222045;}
	.st1{fill:#FFFFFF;}
</style>
<g>
	<g>
		<circle class="st0" cx="404" cy="402" r="359.5"/>
	</g>
	<path class="st1" d="M290,205.8c14,0,25.4,11.4,25.4,25.4v293.2V541h16.6h17.4h16.6v-16.6V212.8h81h81.9c6.8,0,12.4,5.6,12.4,12.4
		v220c0,6.8-5.6,12.4-12.4,12.4h-82.2H430v16.6v50.4V541h16.6h64.3c13.8,0,25.1,11.3,25.1,25.1v6.9c0,13.8-11.3,25.1-25.1,25.1
		H331.9h-8.4h-45.7c-9.9,0-17.9-8-17.9-17.9V231.2c0-14,11.4-25.4,25.4-25.4H290 M424.8,403.8h16.6h27.2c12.8,0,24.1-11.3,24.1-24.3
		v-95.7c0-12.6-10.6-22.5-24.1-22.5h-27.2h-16.6v16.6v109.4V403.8 M290,189.2h-4.6c-23.2,0-42,18.8-42,42v349.1
		c0,19,15.4,34.4,34.4,34.4h45.7h8.4h178.9c23,0,41.7-18.7,41.7-41.7v-6.9c0-23-18.7-41.7-41.7-41.7h-64.3v-50.4h82.2
		c16,0,28.9-13,28.9-28.9v-220c0-16-13-28.9-28.9-28.9h-81.9h-81h-16.5v328.3h-17.4V231.2C331.9,208,313.1,189.2,290,189.2
		L290,189.2z M441.3,387.2V277.8h27.2c3.8,0,7.5,2.2,7.5,6v95.7c0,3.8-3.7,7.7-7.5,7.7H441.3L441.3,387.2z"/>
	<path class="st1" d="M225.2,568.6c-3.1,23.4-23.2,41.1-46.6,41.3c-23.7,0.2-44.2-17.6-47.4-41.3c0-112.6,0-225.1,0-337.7
		c3.1-23,21.7-40.5,43.5-42c24.2-1.7,46.8,16.5,50.4,42C225.2,343.4,225.2,456,225.2,568.6z"/>
	<path class="st1" d="M669.9,568.6c-3.1,23.4-23.2,41.1-46.6,41.3c-23.7,0.2-44.2-17.6-47.4-41.3c0-112.6,0-225.1,0-337.7
		c3.1-23,21.7-40.5,43.5-42c24.2-1.7,46.8,16.5,50.4,42C669.9,343.4,669.9,456,669.9,568.6z"/>
</g>
</svg>
